# xmcd
#
# Track frame offsets:
#	150
#	13796
#	24153
#	37564
#	50627
#	61519
#	78717
#	89212
#	113578
#	123371
#	140232
#	154277
#	167704
#	184600
#	195689
#	214920
#	228638
#	245222
#	257787
#	267981
#
# Disc length: 3775 seconds
#
# Revision: 1
# Processed by: cddbd v1.5.2PL0 Copyright (c) Steve Scherf et al.
# Submitted via: audiograbber 1.83.01
#
DISCID=1e0ebd14
DTITLE=Arden Gailey - Camp Fire Cowboy
DYEAR=2005
DGENRE=Country
TTITLE0=This Old Guitar
TTITLE1=Singin The Blues
TTITLE2=Asoldier's Letter
TTITLE3=Bouquet Of Roses
TTITLE4=Walk On By
TTITLE5=Red River Valley
TTITLE6=Take Theese Chains From My Heart
TTITLE7=City Of New Orleans
TTITLE8=A Fool Such As I
TTITLE9=The Monkey That Became President
TTITLE10=Branded Man
TTITLE11=Old Shep
TTITLE12=Empty Cot In The Bunk House
TTITLE13=Blue Eyes Crying In The Rain
TTITLE14=Goodbye Again
TTITLE15=The River
TTITLE16=Letter Etched In Black
TTITLE17=Lonesome Fugitive
TTITLE18=Your Cheatin Heart
TTITLE19=Closer Walk
EXTD=
EXTT0=
EXTT1=
EXTT2=
EXTT3=
EXTT4=
EXTT5=
EXTT6=
EXTT7=
EXTT8=
EXTT9=
EXTT10=
EXTT11=
EXTT12=
EXTT13=
EXTT14=
EXTT15=
EXTT16=
EXTT17=
EXTT18=
EXTT19=
PLAYORDER=
